<svg xmlns="http://www.w3.org/2000/svg">
    <symbol id="icon-easy" viewBox="0 0 32 32">
        <g class="nc-icon-wrapper">
            <path d="M29.987,6.209C29.987,3.893 28.107,2.013 25.791,2.013L6.209,2.013C3.893,2.013 2.013,3.893 2.013,6.209L2.013,25.791C2.013,28.107 3.893,29.987 6.209,29.987L25.791,29.987C28.107,29.987 29.987,28.107 29.987,25.791L29.987,6.209ZM22.555,17.406L13.211,17.406L13.211,23.828L24.133,23.828L24.133,27.375L8.805,27.375L8.805,4.625L24.086,4.625L24.086,8.203L13.211,8.203L13.211,13.938L22.555,13.938L22.555,17.406Z"/>
        </g>
    </symbol>
    <symbol id="icon-normal" viewBox="0 0 32 32">
        <g class="nc-icon-wrapper">
            <path d="M29.987,6.209C29.987,3.893 28.107,2.013 25.791,2.013L6.209,2.013C3.893,2.013 2.013,3.893 2.013,6.209L2.013,25.791C2.013,28.107 3.893,29.987 6.209,29.987L25.791,29.987C28.107,29.987 29.987,28.107 29.987,25.791L29.987,6.209ZM23.555,27.375L19.18,27.375L12.852,12.703L12.852,27.375L8.43,27.375L8.43,4.625L12.852,4.625L19.133,19.234L19.148,4.625L23.555,4.625L23.555,27.375Z"/>
        </g>
    </symbol>
    <symbol id="icon-hard" viewBox="0 0 32 32">
        <g class="nc-icon-wrapper">
            <path d="M29.987,6.209C29.987,3.893 28.107,2.013 25.791,2.013L6.209,2.013C3.893,2.013 2.013,3.893 2.013,6.209L2.013,25.791C2.013,28.107 3.893,29.987 6.209,29.987L25.791,29.987C28.107,29.987 29.987,28.107 29.987,25.791L29.987,6.209ZM23.57,27.375L19.227,27.375L19.227,17.516L12.789,17.516L12.789,27.375L8.43,27.375L8.43,4.625L12.789,4.625L12.789,13.953L19.227,13.953L19.227,4.625L23.57,4.625L23.57,27.375Z"/>
        </g>
    </symbol>
    <symbol id="icon-expert" viewBox="0 0 32 32">
        <g class="nc-icon-wrapper">
            <path d="M29.987,6.209C29.987,3.893 28.107,2.013 25.791,2.013L6.209,2.013C3.893,2.013 2.013,3.893 2.013,6.209L2.013,25.791C2.013,28.107 3.893,29.987 6.209,29.987L25.791,29.987C28.107,29.987 29.987,28.107 29.987,25.791L29.987,6.209ZM22.057,18.625L24.536,15.104L27.65,15.104L23.869,20.635L27.786,26.375L24.661,26.375L22.067,22.688L19.494,26.375L16.359,26.375L20.275,20.635L16.505,15.104L19.619,15.104L22.057,18.625ZM13.327,19.729L7.098,19.729L7.098,24.01L14.38,24.01L14.38,26.375L4.161,26.375L4.161,11.208L14.348,11.208L14.348,13.594L7.098,13.594L7.098,17.417L13.327,17.417L13.327,19.729Z"/>
        </g>
    </symbol>
    <symbol id="icon-expertPlus" viewBox="0 0 32 32">
        <g class="nc-icon-wrapper">
            <g style="fill-rule:evenodd;clip-rule:evenodd;stroke-linejoin:round;stroke-miterlimit:2;">
                <path d="M29.987,6.209C29.987,3.893 28.107,2.013 25.791,2.013L6.209,2.013C3.893,2.013 2.013,3.893 2.013,6.209L2.013,25.791C2.013,28.107 3.893,29.987 6.209,29.987L25.791,29.987C28.107,29.987 29.987,28.107 29.987,25.791L29.987,6.209ZM22.057,18.625L24.536,15.104L27.65,15.104L23.869,20.635L27.786,26.375L24.661,26.375L22.067,22.688L19.494,26.375L16.359,26.375L20.275,20.635L16.505,15.104L19.619,15.104L22.057,18.625ZM13.327,19.729L7.098,19.729L7.098,24.01L14.38,24.01L14.38,26.375L4.161,26.375L4.161,11.208L14.348,11.208L14.348,13.594L7.098,13.594L7.098,17.417L13.327,17.417L13.327,19.729ZM23.458,7.308L27.217,7.308L27.217,9.917L23.458,9.917L23.458,14.148L20.736,14.148L20.736,9.917L16.966,9.917L16.966,7.308L20.736,7.308L20.736,3.261L23.458,3.261L23.458,7.308Z"/>
            </g>
        </g>
    </symbol>
    <symbol id="icon-Lightshow" viewBox="0 0 32 32">
        <g id="g24" style="fill-rule:evenodd;clip-rule:evenodd;stroke-linejoin:round;stroke-miterlimit:2;">
            <path d="M29.987,6.209C29.987,3.893 28.107,2.013 25.791,2.013L6.209,2.013C3.893,2.013 2.013,3.893 2.013,6.209L2.013,25.791C2.013,28.107 3.893,29.987 6.209,29.987L25.791,29.987C28.107,29.987 29.987,28.107 29.987,25.791L29.987,6.209ZM17.268,27.6C17.268,27.379 17.089,27.2 16.868,27.2L15.132,27.2C14.911,27.2 14.732,27.379 14.732,27.6C14.732,27.821 14.911,28 15.132,28L16.868,28C17.089,28 17.268,27.821 17.268,27.6ZM18.136,26.336C18.136,26.115 17.957,25.936 17.736,25.936L14.264,25.936C14.043,25.936 13.864,26.115 13.864,26.336C13.864,26.557 14.043,26.736 14.264,26.736L17.736,26.736C17.957,26.736 18.136,26.557 18.136,26.336ZM17.736,24.672L14.264,24.672C14.043,24.672 13.864,24.851 13.864,25.072C13.864,25.293 14.043,25.472 14.264,25.472L17.736,25.472C17.957,25.472 18.136,25.293 18.136,25.072C18.136,24.851 17.957,24.672 17.736,24.672ZM18.569,22.695L18.569,21.943C18.569,20.62 19.106,19.349 20.043,18.457C21.215,17.339 21.861,15.833 21.861,14.214C21.861,10.982 19.232,8.353 16,8.353C15.779,8.353 15.555,8.366 15.334,8.39C12.534,8.7 10.305,11.06 10.149,13.881C10.054,15.582 10.699,17.237 11.919,18.42C12.88,19.352 13.431,20.636 13.431,21.942L13.431,22.695C13.431,23.495 14.082,24.145 14.882,24.145L17.118,24.145C17.918,24.146 18.569,23.495 18.569,22.695ZM22.367,20.737C22.445,20.815 22.548,20.854 22.65,20.854C22.753,20.854 22.855,20.815 22.933,20.737C23.089,20.581 23.089,20.328 22.933,20.172L21.303,18.542C21.147,18.386 20.894,18.386 20.738,18.542C20.582,18.698 20.582,18.952 20.738,19.108L22.367,20.737ZM11.262,18.542C11.106,18.386 10.853,18.386 10.697,18.542L9.067,20.172C8.911,20.328 8.911,20.581 9.067,20.737C9.145,20.815 9.248,20.854 9.35,20.854C9.453,20.854 9.555,20.815 9.633,20.737L11.263,19.108C11.419,18.952 11.419,18.698 11.262,18.542ZM25.805,13.805C25.805,13.583 25.626,13.405 25.405,13.405L23.1,13.405C22.879,13.405 22.7,13.583 22.7,13.805C22.7,14.026 22.879,14.205 23.1,14.205L25.405,14.205C25.626,14.205 25.805,14.026 25.805,13.805ZM6.595,14.205L8.9,14.205C9.121,14.205 9.3,14.026 9.3,13.805C9.3,13.583 9.121,13.405 8.9,13.405L6.595,13.405C6.374,13.405 6.195,13.583 6.195,13.805C6.195,14.026 6.374,14.205 6.595,14.205ZM10.697,9.067C10.775,9.145 10.877,9.184 10.98,9.184C11.082,9.184 11.185,9.145 11.263,9.067C11.419,8.911 11.419,8.657 11.263,8.501L9.633,6.872C9.477,6.715 9.224,6.715 9.067,6.872C8.911,7.028 8.911,7.281 9.067,7.437L10.697,9.067ZM22.367,6.872L20.738,8.501C20.581,8.657 20.581,8.911 20.738,9.067C20.816,9.145 20.918,9.184 21.021,9.184C21.123,9.184 21.225,9.145 21.303,9.067L22.933,7.437C23.089,7.281 23.089,7.028 22.933,6.872C22.777,6.715 22.523,6.715 22.367,6.872ZM15.6,4.4L15.6,6.705C15.6,6.926 15.779,7.105 16,7.105C16.221,7.105 16.4,6.926 16.4,6.705L16.4,4.4C16.4,4.179 16.221,4 16,4C15.779,4 15.6,4.179 15.6,4.4Z"/>
        </g>
    </symbol>
    <symbol id="icon-Standard" viewBox="0 0 32 32">
        <g style="fill-rule:evenodd;clip-rule:evenodd;stroke-linejoin:round;stroke-miterlimit:2;">
            <path d="M29.987,6.209C29.987,3.893 28.107,2.013 25.791,2.013L6.209,2.013C3.893,2.013 2.013,3.893 2.013,6.209L2.013,25.791C2.013,28.107 3.893,29.987 6.209,29.987L25.791,29.987C28.107,29.987 29.987,28.107 29.987,25.791L29.987,6.209ZM25.899,8.929C25.509,8.539 24.876,8.539 24.485,8.929L8.929,24.485C8.539,24.876 8.539,25.509 8.929,25.899L11.05,28.021C11.441,28.411 12.074,28.411 12.464,28.021L28.021,12.464C28.411,12.074 28.411,11.441 28.021,11.05L25.899,8.929ZM20.95,3.979C20.559,3.589 19.926,3.589 19.536,3.979L3.979,19.536C3.589,19.926 3.589,20.559 3.979,20.95L6.101,23.071C6.491,23.461 7.124,23.461 7.515,23.071L23.071,7.515C23.461,7.124 23.461,6.491 23.071,6.101L20.95,3.979Z"/>
        </g>
    </symbol>
    <symbol id="icon-OneSaber" viewBox="0 0 32 32">
        <g id="g24" style="fill-rule:evenodd;clip-rule:evenodd;stroke-linejoin:round;stroke-miterlimit:2;">
            <path d="M29.987,6.209C29.987,3.893 28.107,2.013 25.791,2.013L6.209,2.013C3.893,2.013 2.013,3.893 2.013,6.209L2.013,25.791C2.013,28.107 3.893,29.987 6.209,29.987L25.791,29.987C28.107,29.987 29.987,28.107 29.987,25.791L29.987,6.209ZM23.223,6.231C22.755,5.763 21.995,5.763 21.526,6.231L6.231,21.526C5.763,21.995 5.763,22.755 6.231,23.223L8.777,25.769C9.245,26.237 10.005,26.237 10.474,25.769L25.769,10.474C26.237,10.005 26.237,9.245 25.769,8.777L23.223,6.231Z"/>
        </g>
    </symbol>
    <symbol id="icon-360Degree" viewBox="0 0 32 32">
        <g id="g24" style="fill-rule:evenodd;clip-rule:evenodd;stroke-linejoin:round;stroke-miterlimit:2;">
            <path d="M29.987,6.209C29.987,3.893 28.107,2.013 25.791,2.013L6.209,2.013C3.893,2.013 2.013,3.893 2.013,6.209L2.013,25.791C2.013,28.107 3.893,29.987 6.209,29.987L25.791,29.987C28.107,29.987 29.987,28.107 29.987,25.791L29.987,6.209ZM16,5.001C22.07,5.001 26.999,9.93 26.999,16C26.999,22.07 22.07,26.999 16,26.999C9.93,26.999 5.001,22.07 5.001,16C5.001,9.93 9.93,5.001 16,5.001Z"/>
        </g>
    </symbol>
    <symbol id="icon-90Degree" viewBox="0 0 32 32">
        <g id="g24" style="fill-rule:evenodd;clip-rule:evenodd;stroke-linejoin:round;stroke-miterlimit:2;">
            <path d="M29.987,6.209C29.987,3.893 28.107,2.013 25.791,2.013L6.209,2.013C3.893,2.013 2.013,3.893 2.013,6.209L2.013,25.791C2.013,28.107 3.893,29.987 6.209,29.987L25.791,29.987C28.107,29.987 29.987,28.107 29.987,25.791L29.987,6.209ZM3.246,12.244C10.305,5.255 21.695,5.255 28.754,12.244L16,24.998L3.246,12.244Z"/>
        </g>
    </symbol>
    <symbol id="icon-bookmark" viewBox="0 0 32 32">
        <g style="fill-rule:evenodd;clip-rule:evenodd;stroke-linecap:round;stroke-linejoin:round;stroke-miterlimit:1.5;">
            <path d="M27,2.436C27,1.91 26.574,1.484 26.048,1.484L5.952,1.484C5.426,1.484 5,1.91 5,2.436L5,19.566C5,20.091 5.426,20.517 5.952,20.517L26.048,20.517C26.574,20.517 27,20.091 27,19.566L27,2.436Z" style="stroke-width:0.29px;"/>
            <path d="M16.03,20.509L5.03,30.516L5.03,10.501L16.03,20.509Z" style="stroke-width:0.29px;"/>
            <path d="M16.03,20.509L27.03,30.516L27.03,10.501L16.03,20.509Z" style="stroke-width:0.29px;"/>
        </g>
    </symbol>
    <symbol id="icon-playlist" viewBox="0 0 32 32">
        <g style="fill-rule:evenodd;clip-rule:evenodd;stroke-linejoin:round;stroke-miterlimit:2;">
            <g id="list-lines">
                <path d="M13.814,25.5c-0.277,0.89 -0.287,1.832 -0.022,2.759l0.101,0.241l-11.604,0c-0.618,0 -1.119,-0.672 -1.119,-1.5c0,-0.828 0.501,-1.5 1.119,-1.5l11.525,0Z"/>
                <path d="M15.332,22.5l-13.048,0c-0.603,0 -1.093,-0.672 -1.093,-1.5c0,-0.828 0.49,-1.5 1.093,-1.5l16.396,0c0.443,0 0.825,0.362 0.991,0.884l-0.679,0.114c-1.382,0.481 -0.971,0.249 -2.641,1.175l-1.019,0.827Z"/>
                <path d="M18.677,16.5l-16.373,0c-0.603,0 -1.092,-0.672 -1.092,-1.5c0,-0.828 0.489,-1.5 1.092,-1.5l16.373,0c0.603,0 1.092,0.672 1.092,1.5c0,0.828 -0.489,1.5 -1.092,1.5Z" style="fill-rule:nonzero;"/>
                <path d="M18.676,10.5l-16.393,0c-0.604,0 -1.093,-0.672 -1.093,-1.5c0,-0.828 0.489,-1.5 1.093,-1.5l16.393,0c0.603,0 1.093,0.672 1.093,1.5c0,0.828 -0.49,1.5 -1.093,1.5Z" style="fill-rule:nonzero;"/>
                <path d="M18.676,4.5l-16.393,0c-0.604,0 -1.093,-0.672 -1.093,-1.5c0,-0.828 0.489,-1.5 1.093,-1.5l16.393,0c0.603,0 1.093,0.672 1.093,1.5c0,0.828 -0.49,1.5 -1.093,1.5Z" style="fill-rule:nonzero;"/>
            </g>
            <g id="note">
                <path d="M19.406,21.937c2.953,-0.789 5.889,0.588 6.553,3.073c0.664,2.485 -1.194,5.143 -4.147,5.931c-2.952,0.789 -5.889,-0.587 -6.553,-3.072c-0.664,-2.485 1.195,-5.143 4.147,-5.932Z"/>
                <path d="M25.982,2.064l-2.898,-0.776l0,24.847l2.898,0.776l0,-24.847Z"/>
                <path d="M29.694,3.065l-4.012,-1.075l0,4.146l4.012,1.075l0,-4.146Z"/>
            </g>
        </g>
    </symbol>
    <symbol id="icon-vortex" viewBox="0 0 32 32">
        <g id="g-vortex-logo" style="fill-rule:evenodd;clip-rule:evenodd;stroke-linejoin:round;stroke-miterlimit:2;">
            <path d="M17.046,12.719C4.679,15.249 2.441,12.712 2.281,11.9C2.121,11.088 4.255,8.043 15.091,5.97C25.926,3.898 29.095,5.758 29.256,6.57C29.416,7.381 29.412,10.19 17.046,12.719M31.925,6.286C31.649,4.893 27.649,1.416 14.827,3.832C2.005,6.248 -0.254,11.197 0.021,12.59C0.297,13.983 3.244,18.512 17.862,15.477C32.481,12.442 32.199,7.678 31.925,6.286"/>
            <path d="M6.155,19.132C6.155,19.132 8.571,21.114 14.27,21.114C19.969,21.114 21.95,18.884 21.95,18.884C21.95,18.884 23.623,22.6 14.703,22.6C7.704,22.6 6.155,19.132 6.155,19.132" />
            <path d="M8.013,21.919C8.013,21.919 10.305,23.901 14.269,23.901C16.995,23.901 17.366,23.467 17.366,23.467C17.366,23.467 16.871,25.14 13.402,25.14C9.934,25.14 8.013,22.724 8.013,21.919" />
            <path d="M8.88,24.397C8.88,24.397 10.181,26.44 13.464,26.131C13.464,26.131 11.946,27.428 10.181,26.44C8.633,25.573 8.88,24.397 8.88,24.397" />
            <path d="M25.621,13.792C24.372,16.304 15.471,17.889 10.807,17.849C6.348,17.81 3.262,16.483 3.262,16.483C3.262,16.483 4.785,19.47 13.146,19.541C21.509,19.613 28.598,16.391 28.621,13.727C28.624,13.326 28.495,12.962 28.267,12.628C27.505,13.021 26.628,13.41 25.621,13.792" />
            <path d="M18.062,9.858C12.982,9.814 7.515,11.75 7.515,11.75C11.554,10.492 17.509,10.49 21.511,11.189C22.367,10.932 23.106,10.675 23.738,10.423C22.005,10.057 20.004,9.875 18.062,9.858"/>
            <path d="M8.914,12.237L8.295,11.461L8.329,10.478C8.031,10.961 7.472,11.505 6.997,11.869C7.602,11.894 8.382,12.016 8.914,12.237Z" />
            <path d="M10.688,27.576C10.453,27.574 10.02,27.538 9.545,27.302C9.018,27.041 8.708,26.666 8.567,26.469L7.82,27.885" />
        </g>
    </symbol>
</svg>
