<svg xmlns="http://www.w3.org/2000/svg">
    <symbol id="icon-easy" viewBox="0 0 32 32">
        <g class="nc-icon-wrapper">
            <path d="M29.987,6.209C29.987,3.893 28.107,2.013 25.791,2.013L6.209,2.013C3.893,2.013 2.013,3.893 2.013,6.209L2.013,25.791C2.013,28.107 3.893,29.987 6.209,29.987L25.791,29.987C28.107,29.987 29.987,28.107 29.987,25.791L29.987,6.209ZM22.555,17.406L13.211,17.406L13.211,23.828L24.133,23.828L24.133,27.375L8.805,27.375L8.805,4.625L24.086,4.625L24.086,8.203L13.211,8.203L13.211,13.938L22.555,13.938L22.555,17.406Z"/>
        </g>
    </symbol>
    <symbol id="icon-normal" viewBox="0 0 32 32">
        <g class="nc-icon-wrapper">
            <path d="M29.987,6.209C29.987,3.893 28.107,2.013 25.791,2.013L6.209,2.013C3.893,2.013 2.013,3.893 2.013,6.209L2.013,25.791C2.013,28.107 3.893,29.987 6.209,29.987L25.791,29.987C28.107,29.987 29.987,28.107 29.987,25.791L29.987,6.209ZM23.555,27.375L19.18,27.375L12.852,12.703L12.852,27.375L8.43,27.375L8.43,4.625L12.852,4.625L19.133,19.234L19.148,4.625L23.555,4.625L23.555,27.375Z"/>
        </g>
    </symbol>
    <symbol id="icon-hard" viewBox="0 0 32 32">
        <g class="nc-icon-wrapper">
            <path d="M29.987,6.209C29.987,3.893 28.107,2.013 25.791,2.013L6.209,2.013C3.893,2.013 2.013,3.893 2.013,6.209L2.013,25.791C2.013,28.107 3.893,29.987 6.209,29.987L25.791,29.987C28.107,29.987 29.987,28.107 29.987,25.791L29.987,6.209ZM23.57,27.375L19.227,27.375L19.227,17.516L12.789,17.516L12.789,27.375L8.43,27.375L8.43,4.625L12.789,4.625L12.789,13.953L19.227,13.953L19.227,4.625L23.57,4.625L23.57,27.375Z"/>
        </g>
    </symbol>
    <symbol id="icon-expert" viewBox="0 0 32 32">
        <g class="nc-icon-wrapper">
            <path d="M29.987,6.209C29.987,3.893 28.107,2.013 25.791,2.013L6.209,2.013C3.893,2.013 2.013,3.893 2.013,6.209L2.013,25.791C2.013,28.107 3.893,29.987 6.209,29.987L25.791,29.987C28.107,29.987 29.987,28.107 29.987,25.791L29.987,6.209ZM22.057,18.625L24.536,15.104L27.65,15.104L23.869,20.635L27.786,26.375L24.661,26.375L22.067,22.688L19.494,26.375L16.359,26.375L20.275,20.635L16.505,15.104L19.619,15.104L22.057,18.625ZM13.327,19.729L7.098,19.729L7.098,24.01L14.38,24.01L14.38,26.375L4.161,26.375L4.161,11.208L14.348,11.208L14.348,13.594L7.098,13.594L7.098,17.417L13.327,17.417L13.327,19.729Z"/>
        </g>
    </symbol>
    <symbol id="icon-expertplus" viewBox="0 0 32 32">
        <g class="nc-icon-wrapper">
            <path d="M29.987,6.209C29.987,3.893 28.107,2.013 25.791,2.013L6.209,2.013C3.893,2.013 2.013,3.893 2.013,6.209L2.013,25.791C2.013,28.107 3.893,29.987 6.209,29.987L25.791,29.987C28.107,29.987 29.987,28.107 29.987,25.791L29.987,6.209ZM22.057,18.625L24.536,15.104L27.65,15.104L23.869,20.635L27.786,26.375L24.661,26.375L22.067,22.688L19.494,26.375L16.359,26.375L20.275,20.635L16.505,15.104L19.619,15.104L22.057,18.625ZM13.327,19.729L7.098,19.729L7.098,24.01L14.38,24.01L14.38,26.375L4.161,26.375L4.161,11.208L14.348,11.208L14.348,13.594L7.098,13.594L7.098,17.417L13.327,17.417L13.327,19.729ZM24.915,7.286L27.899,7.286L27.899,9.044L24.915,9.044L24.915,12.396L23.095,12.396L23.095,9.044L20.102,9.044L20.102,7.286L23.095,7.286L23.095,4.114L24.915,4.114L24.915,7.286Z"/>
        </g>
    </symbol>
</svg>
